<?xml version="1.0" encoding="UTF-8"?>
<svg width="29px" height="29px" viewBox="0 0 29 29" version="1.1" xmlns="http://www.w3.org/2000/svg" xmlns:xlink="http://www.w3.org/1999/xlink">
    <!-- Generator: Sketch 63.1 (92452) - https://sketch.com -->
    <title>logo-mono-green</title>
    <desc>Created with Sketch.</desc>
    <g id="Page-1" stroke="none" stroke-width="1" fill="none" fill-rule="evenodd">
        <g id="Artboard" transform="translate(-719.000000, -506.000000)" fill="#17A2B8" fill-rule="nonzero">
            <g id="logo-mono-green" transform="translate(719.000000, 506.000000)">
                <path d="M7.12110354,10.6078368 L18.1125348,3.19647631 C18.1125348,3.19647631 17.9292697,4.46892302 17.6410891,6.30046812 L28.2089844,0 L22.4039465,10.2496473 C24.3711001,9.98498012 25.7623911,9.81901261 25.7623911,9.81901261 L16.9602745,22.1857861 C15.9741986,23.8412855 15.1193462,25.1067508 14.5059382,25.7201588 C14.4409346,25.7851625 14.3751398,25.8488927 14.3085849,25.9113497 L14.2917557,25.9349943 C14.2917557,25.9349943 14.290158,25.9338291 14.2870109,25.9315259 C10.9549446,29.0370299 5.73524087,28.9665742 2.48882552,25.7201588 C-0.829608507,22.4017248 -0.829608507,17.0214802 2.48882552,13.7030462 C3.23170125,12.9601705 4.93093221,11.8631746 7.12110354,10.6078368 Z M8.52397165,25.1059961 C11.5178981,25.1059961 13.944955,22.6789391 13.944955,19.6850127 C13.944955,16.6910863 11.5178981,14.2640294 8.52397165,14.2640294 C5.5300452,14.2640294 3.10298828,16.6910863 3.10298828,19.6850127 C3.10298828,22.6789391 5.5300452,25.1059961 8.52397165,25.1059961 Z" id="Combined-Shape" transform="translate(14.104492, 14.104492) scale(-1, 1) translate(-14.104492, -14.104492) "></path>
            </g>
        </g>
    </g>
</svg>