<svg width="120" height="120" viewBox="0 0 120 120" fill="none" xmlns="http://www.w3.org/2000/svg">
<g id="eye-1">
<g id="eye-1_2">
<path id="Layer 1" fill-rule="evenodd" clip-rule="evenodd" d="M60 91.6914C95.3096 91.6914 110 60 110 60C110 60 94.3896 28.7744 60 28.7744C25.6104 28.7744 10 60 10 60C10 60 24.6904 91.6914 60 91.6914Z" stroke="#1BB4BF" stroke-width="4" stroke-linecap="round" stroke-linejoin="round"/>
<path id="Layer 2" fill-rule="evenodd" clip-rule="evenodd" d="M60 82C72.1503 82 82 72.1503 82 60C82 47.8497 72.1503 38 60 38C47.8497 38 38 47.8497 38 60C38 72.1503 47.8497 82 60 82Z" stroke="#1BB4BF" stroke-width="4" stroke-linecap="round" stroke-linejoin="round"/>
<path id="Layer 3" d="M53.8413 71.4515C55.6744 72.4394 57.7717 73 60 73C67.1797 73 73 67.1797 73 60C73 52.8203 67.1797 47 60 47V47C52.8203 47 47 52.8203 47 60C47 61.8644 47.3925 63.6372 48.0994 65.2402" stroke="#1BB4BF" stroke-width="4" stroke-linecap="round" stroke-linejoin="round"/>
</g>
</g>
</svg>
