<svg width="120" height="120" viewBox="0 0 120 120" fill="none" xmlns="http://www.w3.org/2000/svg">
<g id="pen-3">
<g id="pen-3_2">
<path id="Layer 1" d="M78.7363 21.7769L86.5067 14.0065V14.0065V14.0065V14.0065V14.0065C90.7981 9.71504 97.7042 9.66328 101.929 13.8884L106.828 18.7869C111.054 23.0131 111.002 29.9171 106.71 34.2096L98.9393 41.98" stroke="#1BB4BF" stroke-width="4" stroke-linecap="round" stroke-linejoin="round"/>
<path id="Layer 2" fill-rule="evenodd" clip-rule="evenodd" d="M35.0055 95.1978C36.6778 98.3802 39.6737 101.246 39.6737 101.246L10.9877 109.729L19.5271 80.9863C19.5271 80.9863 22.3927 83.9822 25.5751 85.6545C28.7575 87.3268 32.7448 87.9717 32.7448 87.9717C32.7246 88.2467 33.3791 92.1029 35.0055 95.1978V95.1978Z" stroke="#1BB4BF" stroke-width="4" stroke-linecap="round" stroke-linejoin="round"/>
<path id="Layer 3" fill-rule="evenodd" clip-rule="evenodd" d="M26.0338 105.279L10.9877 109.729L15.4531 94.6987L26.0338 105.279V105.279V105.279Z" stroke="#1BB4BF" stroke-width="4" stroke-linecap="round" stroke-linejoin="round"/>
<path id="Layer 4" fill-rule="evenodd" clip-rule="evenodd" d="M88.7005 32.0319L78.591 21.9224L19.5359 80.9774L20.3173 81.7589C21.3853 82.7609 23.4067 84.5149 25.5751 85.6544C28.7575 87.3267 32.7448 87.9716 32.7448 87.9716C32.7445 87.9761 32.7443 87.9816 32.7444 87.9881L88.7005 32.0319V32.0319V32.0319Z" stroke="#1BB4BF" stroke-width="4" stroke-linecap="round" stroke-linejoin="round"/>
<path id="Layer 5" d="M88.8378 31.8784L98.9473 41.988L39.8923 101.043L39.1108 100.262C38.1088 99.1937 36.3548 97.1723 35.2153 95.0038C33.543 91.8214 32.8981 87.8341 32.8981 87.8341C32.8936 87.8344 32.8881 87.8346 32.8817 87.8346" stroke="#1BB4BF" stroke-width="4" stroke-linecap="round" stroke-linejoin="round"/>
</g>
</g>
</svg>
