<svg width="120" height="120" viewBox="0 0 120 120" fill="none" xmlns="http://www.w3.org/2000/svg">
<g id="settings-4">
<g id="settings-4_2">
<path id="Layer 1" fill-rule="evenodd" clip-rule="evenodd" d="M107.657 98.8701C111.732 91.0625 110.491 81.202 103.934 74.6447C97.6492 68.3599 88.3301 66.9587 80.6923 70.4411L49.5589 39.3077C53.0413 31.6699 51.6401 22.3508 45.3553 16.066C38.798 9.50866 28.9375 8.26767 21.1299 12.3431L33.6396 24.8528L24.8528 33.6396L12.3431 21.1299C8.26767 28.9375 9.50866 38.798 16.066 45.3553C22.3508 51.6401 31.6699 53.0413 39.3077 49.5589L70.4411 80.6923C66.9587 88.3301 68.3599 97.6492 74.6447 103.934C81.202 110.491 91.0625 111.732 98.8701 107.657L86.3604 95.1472L95.1472 86.3604L107.657 98.8701V98.8701Z" stroke="#1BB4BF" stroke-width="4" stroke-linecap="round" stroke-linejoin="round"/>
</g>
</g>
</svg>
