<svg width="120" height="120" viewBox="0 0 120 120" fill="none" xmlns="http://www.w3.org/2000/svg">
<g id="support">
<g id="support_2">
<path id="Layer 1" d="M12 57.0952C12 52.1247 16.0294 48.0952 21 48.0952H28.0476C29.7045 48.0952 31.0476 49.4384 31.0476 51.0952V78.4285C31.0476 80.0854 29.7045 81.4285 28.0476 81.4285H21C16.0294 81.4285 12 77.3991 12 72.4285V57.0952Z" stroke="#1BB4BF" stroke-width="4" stroke-linecap="round" stroke-linejoin="round"/>
<path id="Layer 2" d="M97.8214 81.5234C97.8214 94.5733 87.9138 105.24 75.8187 105.24H69.1428" stroke="#1BB4BF" stroke-width="4" stroke-linecap="round" stroke-linejoin="round"/>
<path id="Layer 3" d="M88.1904 51.0952C88.1904 49.4384 89.5336 48.0952 91.1904 48.0952H98.238C103.209 48.0952 107.238 52.1247 107.238 57.0952V72.4285C107.238 77.3991 103.209 81.4285 98.238 81.4285H91.1904C89.5336 81.4285 88.1904 80.0854 88.1904 78.4285V51.0952Z" stroke="#1BB4BF" stroke-width="4" stroke-linecap="round" stroke-linejoin="round"/>
<path id="Layer 4" d="M97.7143 48.0952C97.7143 27.0558 80.6585 10 59.619 10C38.5796 10 21.5238 27.0558 21.5238 48.0952" stroke="#1BB4BF" stroke-width="4" stroke-linecap="round" stroke-linejoin="round"/>
<rect id="Layer 5" x="50.0952" y="100.476" width="19.0476" height="9.52381" rx="4.7619" stroke="#1BB4BF" stroke-width="4" stroke-linecap="round" stroke-linejoin="round"/>
</g>
</g>
</svg>
